# Blender 4.1.1
# www.blender.org
mtllib servo.mtl
o Cube.001
v -0.026410 -0.012438 0.018858
v -0.014437 -0.028171 0.018858
v -0.012426 -0.026175 0.018858
v -0.028422 -0.014450 -0.012719
v -0.028422 -0.014450 0.018858
v 0.000041 0.014021 0.018858
v 0.014011 0.000069 -0.012719
v 0.000041 0.014021 -0.012719
v -0.012426 -0.026175 -0.012719
v -0.026352 -0.012336 -0.012921
v -0.014437 -0.028171 -0.012719
v -0.001359 0.012591 -0.016802
v -0.007549 -0.021362 -0.016802
v -0.021483 -0.007504 -0.016965
v 0.014011 0.000069 0.018858
v 0.012612 -0.001349 -0.016802
v 0.004943 0.017720 -0.007370
v 0.013441 0.000783 -0.007366
v 0.017660 0.005022 -0.007370
v 0.000687 0.013499 -0.009959
v 0.000687 0.013499 -0.007366
v 0.004943 0.017720 -0.009963
v 0.013441 0.000783 -0.009959
v 0.017660 0.005022 -0.009963
v -0.027666 -0.014918 -0.007370
v -0.019168 -0.031855 -0.007366
v -0.014949 -0.027616 -0.007370
v -0.031922 -0.019139 -0.009959
v -0.031922 -0.019139 -0.007366
v -0.027666 -0.014918 -0.009963
v -0.019168 -0.031855 -0.009959
v -0.014949 -0.027616 -0.009963
v 0.002517 0.000557 -0.025055
v 0.002566 0.000056 -0.011999
v 0.002566 0.000056 -0.025055
v 0.002371 0.001038 -0.025055
v 0.002517 0.000557 -0.011999
v 0.002134 0.001482 -0.025055
v 0.002371 0.001038 -0.011999
v 0.001814 0.001870 -0.025055
v 0.002134 0.001482 -0.011999
v 0.001426 0.002190 -0.025055
v 0.001814 0.001870 -0.011999
v 0.000982 0.002427 -0.025055
v 0.001426 0.002190 -0.011999
v 0.000501 0.002573 -0.025055
v 0.000982 0.002427 -0.011999
v 0.000000 0.002622 -0.025055
v 0.000501 0.002573 -0.011999
v -0.000501 0.002573 -0.025055
v 0.000000 0.002622 -0.011999
v -0.000982 0.002427 -0.025055
v -0.000501 0.002573 -0.011999
v -0.001426 0.002190 -0.025055
v -0.000982 0.002427 -0.011999
v -0.001814 0.001870 -0.025055
v -0.001426 0.002190 -0.011999
v -0.002134 0.001482 -0.025055
v -0.001814 0.001870 -0.011999
v -0.002371 0.001038 -0.025055
v -0.002134 0.001482 -0.011999
v -0.002517 0.000557 -0.025055
v -0.002371 0.001038 -0.011999
v -0.002566 0.000056 -0.025055
v -0.002517 0.000557 -0.011999
v -0.002517 -0.000445 -0.025055
v -0.002566 0.000056 -0.011999
v -0.002371 -0.000926 -0.025055
v -0.002517 -0.000445 -0.011999
v -0.002134 -0.001370 -0.025055
v -0.002371 -0.000926 -0.011999
v -0.001814 -0.001758 -0.025055
v -0.002134 -0.001370 -0.011999
v -0.001426 -0.002078 -0.025055
v -0.001814 -0.001758 -0.011999
v -0.000982 -0.002315 -0.025055
v -0.001426 -0.002078 -0.011999
v -0.000501 -0.002461 -0.025055
v -0.000982 -0.002315 -0.011999
v 0.000000 -0.002510 -0.025055
v -0.000501 -0.002461 -0.011999
v 0.000501 -0.002461 -0.025055
v 0.000000 -0.002510 -0.011999
v 0.000982 -0.002315 -0.025055
v 0.000501 -0.002461 -0.011999
v 0.001426 -0.002078 -0.025055
v 0.000982 -0.002315 -0.011999
v 0.001814 -0.001758 -0.025055
v 0.001426 -0.002078 -0.011999
v 0.002134 -0.001370 -0.025055
v 0.001814 -0.001758 -0.011999
v 0.002371 -0.000926 -0.025055
v 0.002134 -0.001370 -0.011999
v 0.002517 -0.000445 -0.011999
v 0.002517 -0.000445 -0.025055
v 0.002371 -0.000926 -0.011999
vn -0.0000 -0.0000 1.0000
vn -0.7003 -0.7138 -0.0000
vn 0.7067 0.7076 -0.0000
vn 0.7045 -0.7097 -0.0000
vn 0.7045 -0.7097 0.0033
vn -0.7141 0.7001 0.0009
vn -0.7072 0.7070 0.0003
vn -0.7086 0.7056 -0.0036
vn -0.0427 -0.0448 -0.9981
vn 0.0020 -0.0112 -0.9999
vn -0.0477 -0.0486 -0.9977
vn 0.0038 -0.0007 -1.0000
vn 0.0061 -0.0011 -1.0000
vn 0.0099 -0.0018 -0.9999
vn -0.7066 0.7076 -0.0049
vn -0.7072 0.7070 -0.0000
vn -0.3549 -0.3676 -0.8596
vn -0.3528 -0.3669 -0.8608
vn -0.3560 -0.3680 -0.8590
vn 0.7045 -0.7097 0.0045
vn -0.7066 0.7076 -0.0053
vn 0.7045 -0.7097 0.0049
vn 0.7045 -0.7097 0.0051
vn 0.6348 0.6361 -0.4387
vn 0.6346 0.6355 -0.4399
vn 0.6345 0.6354 -0.4401
vn 0.0005 0.0005 1.0000
vn -0.7042 0.7100 -0.0000
vn -0.0005 -0.0005 -1.0000
vn 0.7088 -0.7054 -0.0000
vn -0.7061 -0.7082 -0.0000
vn 0.7066 0.7076 -0.0000
vn 0.9952 0.0978 -0.0000
vn 0.9952 0.0979 -0.0000
vn 0.9569 0.2904 -0.0000
vn 0.8822 0.4709 -0.0000
vn 0.7730 0.6344 -0.0000
vn 0.6344 0.7730 -0.0000
vn 0.4712 0.8820 -0.0000
vn 0.4709 0.8822 -0.0000
vn 0.2904 0.9569 -0.0000
vn 0.0979 0.9952 -0.0000
vn -0.0979 0.9952 -0.0000
vn -0.2904 0.9569 -0.0000
vn -0.4712 0.8820 -0.0000
vn -0.4709 0.8822 -0.0000
vn -0.6344 0.7730 -0.0000
vn -0.7730 0.6344 -0.0000
vn -0.8822 0.4709 -0.0000
vn -0.9569 0.2904 -0.0000
vn -0.9952 0.0977 -0.0000
vn -0.9952 0.0978 -0.0000
vn -0.9952 -0.0978 -0.0000
vn -0.9952 -0.0979 -0.0000
vn -0.9569 -0.2904 -0.0000
vn -0.8822 -0.4709 -0.0000
vn -0.7730 -0.6344 -0.0000
vn -0.6344 -0.7730 -0.0000
vn -0.4712 -0.8820 -0.0000
vn -0.4709 -0.8822 -0.0000
vn -0.2904 -0.9569 -0.0000
vn -0.0980 -0.9952 -0.0000
vn 0.0980 -0.9952 -0.0000
vn 0.2904 -0.9569 -0.0000
vn 0.4712 -0.8820 -0.0000
vn 0.4709 -0.8822 -0.0000
vn 0.6344 -0.7730 -0.0000
vn 0.7730 -0.6344 -0.0000
vn 0.8822 -0.4709 -0.0000
vn 0.9952 -0.0977 -0.0000
vn 0.9952 -0.0978 -0.0000
vn 0.9569 -0.2904 -0.0000
vn -0.0000 -0.0000 -1.0000
vn -0.7071 0.7071 -0.0000
vn 0.0072 -0.0073 -0.9999
vn -0.3517 -0.3665 -0.8614
vn -0.7066 0.7076 -0.0056
vn 0.6348 0.6362 -0.4385
vn 0.9952 0.0977 -0.0000
vn 0.4714 0.8819 -0.0000
vn -0.9952 0.0979 -0.0000
vn -0.9952 -0.0977 -0.0000
vn -0.4714 -0.8819 -0.0000
vn 0.9952 -0.0979 -0.0000
s 1
usemtl None.002
f 1//1 2//1 3//1
f 4//2 2//2 5//2
f 6//3 7//3 8//3
f 2//4 9//5 3//4
f 4//6 1//7 10//8
f 10//9 11//10 4//11
f 12//12 13//13 14//14
f 8//15 1//7 6//16
f 9//17 14//18 13//19
f 3//4 7//20 15//4
f 6//1 3//1 15//1
f 8//15 14//21 10//8
f 7//20 13//22 16//23
f 7//24 12//25 8//26
f 17//27 18//27 19//27
f 17//28 20//28 21//28
f 22//29 23//29 20//29
f 19//30 23//30 24//30
f 21//31 23//31 18//31
f 22//32 19//32 24//32
f 25//27 26//27 27//27
f 25//28 28//28 29//28
f 30//29 31//29 28//29
f 27//30 31//30 32//30
f 29//31 31//31 26//31
f 30//32 27//32 32//32
f 33//33 34//33 35//34
f 36//35 37//35 33//35
f 38//36 39//36 36//36
f 40//37 41//37 38//37
f 42//38 43//38 40//38
f 44//39 45//40 42//39
f 46//41 47//41 44//41
f 48//42 49//42 46//42
f 50//43 51//43 48//43
f 52//44 53//44 50//44
f 54//45 55//46 52//45
f 56//47 57//47 54//47
f 58//48 59//48 56//48
f 60//49 61//49 58//49
f 62//50 63//50 60//50
f 64//51 65//52 62//51
f 66//53 67//53 64//54
f 68//55 69//55 66//55
f 70//56 71//56 68//56
f 72//57 73//57 70//57
f 74//58 75//58 72//58
f 76//59 77//60 74//59
f 78//61 79//61 76//61
f 80//62 81//62 78//62
f 82//63 83//63 80//63
f 84//64 85//64 82//64
f 86//65 87//66 84//65
f 88//67 89//67 86//67
f 90//68 91//68 88//68
f 92//69 93//69 90//69
f 67//1 91//1 34//1
f 35//70 94//71 95//70
f 95//72 96//72 92//72
f 66//73 50//73 33//73
f 1//1 5//1 2//1
f 4//2 11//2 2//2
f 6//3 15//3 7//3
f 2//4 11//4 9//5
f 4//6 5//74 1//7
f 10//9 9//75 11//10
f 12//12 16//73 13//13
f 8//15 10//8 1//7
f 9//17 10//76 14//18
f 3//4 9//5 7//20
f 6//1 1//1 3//1
f 8//15 12//77 14//21
f 7//20 9//5 13//22
f 7//24 16//78 12//25
f 17//27 21//27 18//27
f 17//28 22//28 20//28
f 22//29 24//29 23//29
f 19//30 18//30 23//30
f 21//31 20//31 23//31
f 22//32 17//32 19//32
f 25//27 29//27 26//27
f 25//28 30//28 28//28
f 30//29 32//29 31//29
f 27//30 26//30 31//30
f 29//31 28//31 31//31
f 30//32 25//32 27//32
f 33//33 37//79 34//33
f 36//35 39//35 37//35
f 38//36 41//36 39//36
f 40//37 43//37 41//37
f 42//38 45//38 43//38
f 44//39 47//80 45//40
f 46//41 49//41 47//41
f 48//42 51//42 49//42
f 50//43 53//43 51//43
f 52//44 55//44 53//44
f 54//45 57//45 55//46
f 56//47 59//47 57//47
f 58//48 61//48 59//48
f 60//49 63//49 61//49
f 62//50 65//50 63//50
f 64//51 67//81 65//52
f 66//53 69//82 67//53
f 68//55 71//55 69//55
f 70//56 73//56 71//56
f 72//57 75//57 73//57
f 74//58 77//58 75//58
f 76//59 79//83 77//60
f 78//61 81//61 79//61
f 80//62 83//62 81//62
f 82//63 85//63 83//63
f 84//64 87//64 85//64
f 86//65 89//65 87//66
f 88//67 91//67 89//67
f 90//68 93//68 91//68
f 92//69 96//69 93//69
f 34//1 37//1 39//1
f 39//1 41//1 43//1
f 43//1 45//1 47//1
f 47//1 49//1 51//1
f 51//1 53//1 55//1
f 55//1 57//1 59//1
f 59//1 61//1 63//1
f 63//1 65//1 67//1
f 67//1 69//1 71//1
f 71//1 73//1 75//1
f 75//1 77//1 79//1
f 79//1 81//1 83//1
f 83//1 85//1 87//1
f 87//1 89//1 91//1
f 91//1 93//1 96//1
f 96//1 94//1 34//1
f 34//1 39//1 43//1
f 43//1 47//1 51//1
f 51//1 55//1 59//1
f 59//1 63//1 67//1
f 67//1 71//1 75//1
f 75//1 79//1 83//1
f 83//1 87//1 91//1
f 91//1 96//1 34//1
f 34//1 43//1 51//1
f 51//1 59//1 34//1
f 67//1 75//1 83//1
f 83//1 91//1 67//1
f 34//1 59//1 67//1
f 35//70 34//84 94//71
f 95//72 94//72 96//72
f 33//73 35//73 90//73
f 95//73 92//73 90//73
f 90//73 88//73 82//73
f 86//73 84//73 82//73
f 82//73 80//73 74//73
f 78//73 76//73 74//73
f 74//73 72//73 66//73
f 70//73 68//73 66//73
f 66//73 64//73 58//73
f 62//73 60//73 58//73
f 58//73 56//73 50//73
f 54//73 52//73 50//73
f 50//73 48//73 42//73
f 46//73 44//73 42//73
f 42//73 40//73 33//73
f 38//73 36//73 33//73
f 35//73 95//73 90//73
f 88//73 86//73 82//73
f 80//73 78//73 74//73
f 72//73 70//73 66//73
f 64//73 62//73 58//73
f 56//73 54//73 50//73
f 48//73 46//73 42//73
f 40//73 38//73 33//73
f 33//73 90//73 82//73
f 82//73 74//73 66//73
f 66//73 58//73 50//73
f 50//73 42//73 33//73
f 33//73 82//73 66//73
